<svg width="64" height="64" viewBox="0 0 64 64" fill="none" xmlns="http://www.w3.org/2000/svg">
<rect width="64" height="64" rx="12" fill="#2C4284"/>
<path d="M11 11.9402C11 11.5531 11.3138 11.2393 11.7009 11.2393H51.2991C51.6862 11.2393 52 11.5531 52 11.9402V19.2991C52 19.6862 51.6862 20 51.2991 20H35.7051H34.5H28.5H26.9444H11.7009C11.3138 20 11 19.6862 11 19.2991V11.9402Z" fill="#EDEDED"/>
<path d="M47.0941 22.7564V33.4444C47.0941 33.8315 46.7803 34.1453 46.3933 34.1453H39.0343C38.6472 34.1453 38.3334 33.8315 38.3334 33.4444V31.5171C38.3334 31.13 38.0197 30.8162 37.6326 30.8162H25.0172C24.6301 30.8162 24.3163 31.13 24.3163 31.5171V42.906C24.3163 43.293 24.6301 43.6068 25.0172 43.6068H37.6326C38.0197 43.6068 38.3334 43.293 38.3334 42.906V41.329C38.3334 40.942 38.6472 40.6282 39.0343 40.6282H46.3933C46.7803 40.6282 47.0941 40.942 47.0941 41.329V51.6667C47.0941 52.0537 46.7803 52.3675 46.3933 52.3675H16.2565C15.8694 52.3675 15.5557 52.0537 15.5557 51.6667V22.7564C15.5557 22.3693 15.8694 22.0555 16.2565 22.0555H46.3933C46.7803 22.0555 47.0941 22.3693 47.0941 22.7564Z" fill="#EDEDED"/>
<path d="M36.8804 32V47.5986C36.8802 48.9248 35.8051 49.9998 34.479 50H28.521C27.1948 49.9998 26.1198 48.9248 26.1196 47.5986V32H36.8804Z" fill="#EDEDED" stroke="#2C4284" stroke-width="2"/>
</svg>
