<svg width="309" height="40" viewBox="0 0 309 40" fill="none" xmlns="http://www.w3.org/2000/svg">
<path d="M103.625 39V9.60001H110.471L126.683 29.172H123.449V9.60001H131.597V39H124.751L108.539 19.428H111.773V39H103.625Z" fill="#E5A151"/>
<path d="M85.1749 39.588C82.8509 39.588 80.6949 39.224 78.7069 38.496C76.7469 37.74 75.0389 36.676 73.5829 35.304C72.1549 33.932 71.0349 32.322 70.2229 30.474C69.4109 28.598 69.0049 26.54 69.0049 24.3C69.0049 22.06 69.4109 20.016 70.2229 18.168C71.0349 16.292 72.1549 14.668 73.5829 13.296C75.0389 11.924 76.7469 10.874 78.7069 10.146C80.6949 9.38999 82.8509 9.01199 85.1749 9.01199C87.8909 9.01199 90.3129 9.48799 92.4409 10.44C94.5969 11.392 96.3889 12.764 97.8169 14.556L92.5249 19.344C91.5729 18.224 90.5229 17.37 89.3749 16.782C88.2549 16.194 86.9949 15.9 85.5949 15.9C84.3909 15.9 83.2849 16.096 82.2769 16.488C81.2689 16.88 80.4009 17.454 79.6729 18.21C78.9729 18.938 78.4129 19.82 77.9929 20.856C77.6009 21.892 77.4049 23.04 77.4049 24.3C77.4049 25.56 77.6009 26.708 77.9929 27.744C78.4129 28.78 78.9729 29.676 79.6729 30.432C80.4009 31.16 81.2689 31.72 82.2769 32.112C83.2849 32.504 84.3909 32.7 85.5949 32.7C86.9949 32.7 88.2549 32.406 89.3749 31.818C90.5229 31.23 91.5729 30.376 92.5249 29.256L97.8169 34.044C96.3889 35.808 94.5969 37.18 92.4409 38.16C90.3129 39.112 87.8909 39.588 85.1749 39.588Z" fill="#E5A151"/>
<path d="M47.8422 20.982H56.498V27.198H47.8422V20.982ZM48.4302 32.574H63.8022V39H40.1982V9.60001H63.2562V16.026H48.4302V32.574Z" fill="#E5A151"/>
<path d="M12.0016 39V8.74714H0V0H35V8.74714H23.0542V39H12.0016Z" fill="#E5A151"/>
<path fill-rule="evenodd" clip-rule="evenodd" d="M168.564 25.588C168.071 33.0755 162.084 39.0624 154.597 39.5552V33.3829C158.686 32.9231 161.932 29.6771 162.391 25.588H168.564ZM168.564 23.588C168.071 16.1005 162.084 10.1136 154.597 9.62082V15.7931C158.686 16.2529 161.932 19.4989 162.391 23.588H168.564ZM144.802 23.588C145.262 19.4989 148.507 16.2529 152.597 15.7931V9.62082C145.109 10.1136 139.122 16.1005 138.629 23.588H144.802ZM138.629 25.588C139.122 33.0755 145.109 39.0624 152.597 39.5552V33.3829C148.507 32.9231 145.262 29.6771 144.802 25.588H138.629Z" fill="#E5A151"/>
<circle cx="153.597" cy="24.588" r="5" stroke="#E5A151" stroke-width="2"/>
<rect x="152.597" y="16.588" width="2" height="16" fill="#E5A151"/>
<rect x="145.597" y="25.588" width="2" height="16" transform="rotate(-90 145.597 25.588)" fill="#E5A151"/>
<path d="M191.767 39.588C189.443 39.588 187.287 39.224 185.299 38.496C183.339 37.74 181.631 36.676 180.175 35.304C178.747 33.932 177.627 32.322 176.815 30.474C176.003 28.598 175.597 26.54 175.597 24.3C175.597 22.06 176.003 20.016 176.815 18.168C177.627 16.292 178.747 14.668 180.175 13.296C181.631 11.924 183.339 10.874 185.299 10.146C187.287 9.38999 189.443 9.01199 191.767 9.01199C194.483 9.01199 196.905 9.48799 199.033 10.44C201.189 11.392 202.981 12.764 204.409 14.556L199.117 19.344C198.165 18.224 197.115 17.37 195.967 16.782C194.847 16.194 193.587 15.9 192.187 15.9C190.983 15.9 189.877 16.096 188.869 16.488C187.861 16.88 186.993 17.454 186.265 18.21C185.565 18.938 185.005 19.82 184.585 20.856C184.193 21.892 183.997 23.04 183.997 24.3C183.997 25.56 184.193 26.708 184.585 27.744C185.005 28.78 185.565 29.676 186.265 30.432C186.993 31.16 187.861 31.72 188.869 32.112C189.877 32.504 190.983 32.7 192.187 32.7C193.587 32.7 194.847 32.406 195.967 31.818C197.115 31.23 198.165 30.376 199.117 29.256L204.409 34.044C202.981 35.808 201.189 37.18 199.033 38.16C196.905 39.112 194.483 39.588 191.767 39.588Z" fill="#2C4284"/>
<path fill-rule="evenodd" clip-rule="evenodd" d="M209.409 39.588V10.588H229.409C234.909 10.588 238.909 13.588 238.909 19.088C238.909 24.588 232.409 27.588 232.409 27.588L240.909 39.588H232.909L224.909 27.588H216.909V39.588H209.409ZM215.909 21.588V16.588H226.909C228.409 16.588 230.909 17.2459 230.909 19.088C230.909 20.9301 228.409 21.588 226.909 21.588H215.909Z" fill="#2C4284"/>
<path d="M253.553 21.57H262.208V27.786H253.553V21.57ZM254.141 33.162H269.513V39.588H245.909V10.188H268.967V16.614H254.141V33.162Z" fill="#2C4284"/>
<path d="M274.513 39.588L287.491 10.188H295.681L308.701 39.588H300.049L289.885 14.262H293.161L282.997 39.588H274.513ZM281.611 33.876L283.753 27.744H298.117L300.259 33.876H281.611Z" fill="#2C4284"/>
</svg>
